<svg width="24" height="24" viewBox="0 0 24 24" fill="none" xmlns="http://www.w3.org/2000/svg">
<path d="M10.4067 5.55986L4 11.9999L10.4067 18.4399C10.4645 18.5158 10.538 18.5785 10.6222 18.6236C10.7064 18.6687 10.7993 18.6952 10.8946 18.7013C10.9899 18.7074 11.0854 18.6929 11.1747 18.6589C11.2639 18.6248 11.3448 18.572 11.4118 18.504C11.4789 18.436 11.5305 18.3544 11.5633 18.2646C11.596 18.1749 11.6091 18.0792 11.6017 17.984C11.5943 17.8888 11.5664 17.7963 11.5201 17.7128C11.4738 17.6292 11.4101 17.5566 11.3333 17.4999L6.54 12.6665H19.2933C19.4701 12.6665 19.6397 12.5963 19.7647 12.4713C19.8898 12.3462 19.96 12.1767 19.96 11.9999C19.96 11.8231 19.8898 11.6535 19.7647 11.5285C19.6397 11.4034 19.4701 11.3332 19.2933 11.3332H6.54L11.3333 6.49986C11.458 6.37433 11.5277 6.20441 11.527 6.0275C11.5264 5.8506 11.4555 5.68118 11.33 5.55653C11.2045 5.43188 11.0346 5.3622 10.8576 5.36282C10.6807 5.36345 10.5113 5.43433 10.3867 5.55986H10.4067Z" fill="black"/>
</svg>
