<svg width="24" height="24" viewBox="0 0 24 24" fill="none" xmlns="http://www.w3.org/2000/svg">
<path d="M13.5933 18.4401L20 12.0001L13.5933 5.56014C13.5355 5.48415 13.462 5.42149 13.3778 5.37639C13.2936 5.33129 13.2007 5.3048 13.1054 5.29872C13.0101 5.29264 12.9146 5.3071 12.8253 5.34114C12.7361 5.37518 12.6552 5.42799 12.5882 5.496C12.5211 5.56402 12.4695 5.64564 12.4367 5.73535C12.404 5.82506 12.3909 5.92076 12.3983 6.01598C12.4057 6.11119 12.4336 6.2037 12.4799 6.28723C12.5262 6.37076 12.5899 6.44337 12.6667 6.50014L17.46 11.3335H4.70667C4.52986 11.3335 4.36029 11.4037 4.23526 11.5287C4.11024 11.6538 4.04 11.8233 4.04 12.0001C4.04 12.1769 4.11024 12.3465 4.23526 12.4715C4.36029 12.5966 4.52986 12.6668 4.70667 12.6668H17.46L12.6667 17.5001C12.542 17.6257 12.4723 17.7956 12.473 17.9725C12.4736 18.1494 12.5445 18.3188 12.67 18.4435C12.7955 18.5681 12.9654 18.6378 13.1424 18.6372C13.3193 18.6366 13.4887 18.5657 13.6133 18.4401H13.5933Z" fill="black"/>
</svg>
